<svg xmlns="http://www.w3.org/2000/svg" viewBox="0 0 256 256" role="img" aria-labelledby="title desc">
  <title id="title">Sub2API Logo</title>
  <desc id="desc">Rounded square with a flowing white S shape.</desc>
  <defs>
    <linearGradient id="bg" x1="0" y1="0" x2="1" y2="1">
      <stop offset="0%" stop-color="#0ea5e9"/>
      <stop offset="100%" stop-color="#22c55e"/>
    </linearGradient>
  </defs>
  <rect x="12" y="12" width="232" height="232" rx="58" fill="url(#bg)"/>
  <path
    d="M167 72c-11-10-24-15-39-15-33 0-56 18-56 43 0 22 16 33 45 39 21 4 30 10 30 21 0 12-12 21-30 21-16 0-31-7-44-19l-17 20c16 16 38 25 61 25 35 0 59-18 59-46 0-25-17-36-48-42-20-4-27-9-27-19 0-11 10-18 26-18 13 0 25 5 36 14z"
    fill="#ffffff"
  />
</svg>
